<svg width="316" height="45" viewBox="0 0 316 45" fill="currentColor"
    xmlns="http://www.w3.org/2000/svg">
    <path
        d="M7.86752 14.0349C7.56822 13.9821 7.26321 13.9554 6.961 13.9554C4.437 13.9554 2.28671 15.7615 1.84795 18.2498L0.0794774 28.2796C-0.41811 31.1012 1.47278 33.8016 4.29442 34.2992C4.59372 34.352 4.89873 34.3787 5.20094 34.3787C7.72473 34.3787 9.87523 32.5725 10.314 30.0843L12.0826 20.0545C12.5799 17.2327 10.6892 14.5325 7.86752 14.0349Z"
        fill="url(#paint0_linear_0_1)" />
    <path
        d="M22.3619 9.42941C22.0626 9.37661 21.7575 9.34991 21.4553 9.34991C18.9314 9.34991 16.781 11.156 16.3424 13.6443L12.9497 32.8852C12.7087 34.252 13.0144 35.631 13.8105 36.7679C14.6065 37.9047 15.7978 38.6637 17.1646 38.9048C17.4639 38.9576 17.7689 38.9843 18.0712 38.9843C20.595 38.9843 22.7454 37.1781 23.1842 34.6898L26.5769 15.449C27.0744 12.6272 25.1835 9.92699 22.3619 9.42941Z"
        fill="url(#paint1_linear_0_1)" />
    <path
        d="M40.2104 6.19311C39.4142 5.05618 38.223 4.29733 36.8563 4.05623C36.5569 4.00344 36.2518 3.97662 35.9495 3.97662C33.4257 3.97662 31.2754 5.78271 30.8367 8.27117L25.5491 38.2582C25.3081 39.625 25.6139 41.0039 26.4099 42.1409C27.2061 43.2777 28.3972 44.0366 29.7639 44.2777C30.0633 44.3305 30.3683 44.3573 30.6707 44.3573C33.1947 44.3573 35.3449 42.5511 35.7836 40.0628L41.0712 10.0758C41.3122 8.709 41.0065 7.33004 40.2104 6.19311Z"
        fill="url(#paint2_linear_0_1)" />
    <path
        d="M48.9143 14.0349C48.615 13.9821 48.31 13.9554 48.0077 13.9554C45.4837 13.9554 43.3335 15.7615 42.8947 18.2498L41.1261 28.2796C40.6285 31.1012 42.5194 33.8016 45.3411 34.2992C45.6404 34.352 45.9454 34.3787 46.2476 34.3787C48.7714 34.3787 50.9219 32.5725 51.3606 30.0843L53.1292 20.0545C53.6268 17.2327 51.736 14.5325 48.9143 14.0349Z"
        fill="url(#paint3_linear_0_1)" />
    <path
        d="M79.4625 44.7992C77.5449 44.7992 75.7227 44.5693 73.996 44.1094C72.2693 43.6495 70.7378 43.0031 69.4015 42.1701C68.6553 41.6669 68.126 41.1983 67.8136 40.7644C67.5013 40.3306 67.3451 39.8013 67.3451 39.1766C67.3451 38.6299 67.5013 38.1787 67.8136 37.8229C68.126 37.4759 68.5338 37.3023 69.0371 37.3023C69.5317 37.3023 70.2606 37.6147 71.2237 38.2394C72.4732 38.9857 73.7097 39.5757 74.9331 40.0095C76.1652 40.4521 77.6967 40.6733 79.5276 40.6733C81.7749 40.6733 83.5233 40.2785 84.7728 39.4889C86.0223 38.6906 86.647 37.5453 86.647 36.0528C86.647 35.1331 86.4171 34.3912 85.9572 33.8272C85.506 33.2632 84.7164 32.7643 83.5884 32.3304C82.4604 31.8966 80.8161 31.4497 78.6555 30.9898C74.9852 30.2002 72.3604 29.1373 70.7812 27.801C69.202 26.4648 68.4124 24.6513 68.4124 22.3606C68.4124 20.5731 68.9113 18.9939 69.9091 17.6229C70.907 16.2433 72.291 15.1587 74.0611 14.3691C75.8312 13.5795 77.8399 13.1847 80.0872 13.1847C81.7098 13.1847 83.2847 13.4016 84.8118 13.8354C86.3303 14.278 87.6709 14.894 88.8336 15.6836C90.248 16.6815 90.9551 17.7227 90.9551 18.8074C90.9551 19.3453 90.7903 19.8009 90.4606 20.174C90.1308 20.5558 89.736 20.7467 89.2762 20.7467C88.7729 20.7467 88.0223 20.3909 87.0245 19.6794C85.8618 18.9332 84.7598 18.3518 83.7186 17.9353C82.6773 17.5188 81.3844 17.3106 79.8399 17.3106C77.8789 17.3106 76.3084 17.7444 75.1283 18.6121C73.9396 19.4885 73.3452 20.6555 73.3452 22.1133C73.3452 23.033 73.5621 23.7749 73.996 24.3389C74.4385 24.8943 75.1674 25.3932 76.1826 25.8357C77.2065 26.2696 78.6772 26.6947 80.5948 27.1112C83.4235 27.736 85.6188 28.4258 87.1807 29.1807C88.7425 29.9269 89.8575 30.8423 90.5256 31.9269C91.1938 33.0116 91.5278 34.3869 91.5278 36.0528C91.5278 38.6733 90.4215 40.7861 88.2089 42.3914C86.0049 43.9966 83.0895 44.7992 79.4625 44.7992ZM101.771 44.6691C101.016 44.6691 100.4 44.4522 99.9228 44.0183C99.4456 43.5758 99.207 42.9597 99.207 42.1701V15.8008C99.207 15.0112 99.4456 14.3994 99.9228 13.9656C100.4 13.5231 101.016 13.3018 101.771 13.3018C102.517 13.3018 103.12 13.5231 103.58 13.9656C104.04 14.3994 104.27 15.0112 104.27 15.8008V42.1701C104.27 43.0031 104.04 43.6278 103.58 44.0443C103.12 44.4608 102.517 44.6691 101.771 44.6691ZM101.771 6.74201C100.773 6.74201 99.9619 6.45134 99.3371 5.86998C98.7124 5.28862 98.4 4.52071 98.4 3.56624C98.4 2.64648 98.7124 1.89592 99.3371 1.31456C99.9619 0.733207 100.773 0.442526 101.771 0.442526C102.769 0.442526 103.58 0.733207 104.205 1.31456C104.83 1.89592 105.142 2.64648 105.142 3.56624C105.142 4.52071 104.83 5.28862 104.205 5.86998C103.58 6.45134 102.769 6.74201 101.771 6.74201ZM123.944 44.7992C122.027 44.7992 120.204 44.5693 118.478 44.1094C116.751 43.6495 115.219 43.0031 113.883 42.1701C113.137 41.6669 112.608 41.1983 112.295 40.7644C111.983 40.3306 111.827 39.8013 111.827 39.1766C111.827 38.6299 111.983 38.1787 112.295 37.8229C112.608 37.4759 113.016 37.3023 113.519 37.3023C114.013 37.3023 114.742 37.6147 115.705 38.2394C116.955 38.9857 118.191 39.5757 119.415 40.0095C120.647 40.4521 122.178 40.6733 124.009 40.6733C126.257 40.6733 128.005 40.2785 129.254 39.4889C130.504 38.6906 131.129 37.5453 131.129 36.0528C131.129 35.1331 130.899 34.3912 130.439 33.8272C129.988 33.2632 129.198 32.7643 128.07 32.3304C126.942 31.8966 125.298 31.4497 123.137 30.9898C119.467 30.2002 116.842 29.1373 115.263 27.801C113.684 26.4648 112.894 24.6513 112.894 22.3606C112.894 20.5731 113.393 18.9939 114.391 17.6229C115.389 16.2433 116.773 15.1587 118.543 14.3691C120.313 13.5795 122.322 13.1847 124.569 13.1847C126.191 13.1847 127.766 13.4016 129.294 13.8354C130.812 14.278 132.153 14.894 133.315 15.6836C134.73 16.6815 135.437 17.7227 135.437 18.8074C135.437 19.3453 135.272 19.8009 134.942 20.174C134.612 20.5558 134.218 20.7467 133.758 20.7467C133.255 20.7467 132.504 20.3909 131.506 19.6794C130.343 18.9332 129.241 18.3518 128.2 17.9353C127.159 17.5188 125.866 17.3106 124.322 17.3106C122.361 17.3106 120.79 17.7444 119.61 18.6121C118.421 19.4885 117.827 20.6555 117.827 22.1133C117.827 23.033 118.044 23.7749 118.478 24.3389C118.92 24.8943 119.649 25.3932 120.664 25.8357C121.688 26.2696 123.159 26.6947 125.076 27.1112C127.905 27.736 130.1 28.4258 131.662 29.1807C133.224 29.9269 134.339 30.8423 135.007 31.9269C135.675 33.0116 136.009 34.3869 136.009 36.0528C136.009 38.6733 134.903 40.7861 132.691 42.3914C130.487 43.9966 127.571 44.7992 123.944 44.7992ZM167.247 37.3023C167.698 37.3023 168.093 37.4889 168.431 37.862C168.761 38.2351 168.926 38.7123 168.926 39.2937C168.926 40.3349 168.197 41.2937 166.739 42.1701C165.238 43.0465 163.654 43.7016 161.988 44.1355C160.322 44.578 158.7 44.7992 157.121 44.7992C152.418 44.7992 148.7 43.4022 145.966 40.6083C143.242 37.8143 141.879 33.9617 141.879 29.0505C141.879 25.9268 142.483 23.1675 143.689 20.7727C144.895 18.3778 146.591 16.5123 148.778 15.176C150.964 13.8485 153.455 13.1847 156.249 13.1847C160.205 13.1847 163.351 14.4732 165.685 17.0503C168.01 19.636 169.173 23.1372 169.173 27.5537C169.173 28.3867 169.008 28.9898 168.678 29.3629C168.349 29.736 167.806 29.9226 167.051 29.9226H146.942C147.316 37.0897 150.708 40.6733 157.121 40.6733C158.743 40.6733 160.14 40.4521 161.312 40.0095C162.474 39.5757 163.724 38.9857 165.06 38.2394C166.136 37.6147 166.865 37.3023 167.247 37.3023ZM156.314 17.1153C153.641 17.1153 151.507 17.9483 149.91 19.6143C148.305 21.2803 147.355 23.6361 147.06 26.6817H164.748C164.661 23.5927 163.889 21.2282 162.431 19.5883C160.973 17.9397 158.934 17.1153 156.314 17.1153ZM200.912 40.361C201.581 40.9857 201.915 41.6495 201.915 42.3523C201.915 42.9771 201.698 43.5194 201.264 43.9793C200.821 44.4391 200.288 44.6691 199.663 44.6691C199.125 44.6691 198.565 44.4175 197.984 43.9142L181.676 29.8575V42.1701C181.676 42.9597 181.437 43.5758 180.96 44.0183C180.474 44.4522 179.879 44.6691 179.177 44.6691C178.422 44.6691 177.806 44.4522 177.328 44.0183C176.851 43.5758 176.613 42.9597 176.613 42.1701V2.49897C176.613 1.70937 176.851 1.0933 177.328 0.650773C177.806 0.216924 178.422 0 179.177 0C179.879 0 180.474 0.216924 180.96 0.650773C181.437 1.0933 181.676 1.70937 181.676 2.49897V27.8661L196.604 14.1869C197.108 13.6836 197.672 13.432 198.296 13.432C198.921 13.432 199.459 13.6619 199.91 14.1218C200.37 14.5817 200.6 15.124 200.6 15.7487C200.6 16.4516 200.309 17.0763 199.728 17.6229L187.415 28.608L200.912 40.361ZM219.912 44.7992C217.032 44.7992 214.498 44.1528 212.311 42.8599C210.125 41.5671 208.441 39.7232 207.261 37.3284C206.073 34.9335 205.478 32.1525 205.478 28.9854C205.478 25.8183 206.073 23.0374 207.261 20.6425C208.441 18.2477 210.125 16.4082 212.311 15.124C214.498 13.8311 217.032 13.1847 219.912 13.1847C222.784 13.1847 225.322 13.8311 227.526 15.124C229.739 16.4082 231.435 18.2477 232.615 20.6425C233.804 23.0374 234.399 25.8183 234.399 28.9854C234.399 32.1525 233.804 34.9335 232.615 37.3284C231.435 39.7232 229.739 41.5671 227.526 42.8599C225.322 44.1528 222.784 44.7992 219.912 44.7992ZM219.912 40.6083C222.906 40.6083 225.205 39.6191 226.811 37.6407C228.416 35.6624 229.218 32.7773 229.218 28.9854C229.218 25.2804 228.407 22.417 226.785 20.3952C225.153 18.3735 222.863 17.3626 219.912 17.3626C216.954 17.3626 214.663 18.3735 213.04 20.3952C211.409 22.417 210.593 25.2804 210.593 28.9854C210.593 32.7339 211.396 35.6103 213.001 37.6147C214.606 39.6104 216.91 40.6083 219.912 40.6083ZM244.525 44.6691C243.77 44.6691 243.154 44.4522 242.676 44.0183C242.199 43.5758 241.961 42.9597 241.961 42.1701V2.49897C241.961 1.70937 242.199 1.0933 242.676 0.650773C243.154 0.216924 243.77 0 244.525 0C245.227 0 245.822 0.216924 246.308 0.650773C246.785 1.0933 247.024 1.70937 247.024 2.49897V42.1701C247.024 42.9597 246.785 43.5758 246.308 44.0183C245.822 44.4522 245.227 44.6691 244.525 44.6691ZM268.884 13.1847C276.511 13.1847 280.325 17.1804 280.325 25.1719V42.1701C280.325 42.9163 280.104 43.5194 279.661 43.9793C279.227 44.4391 278.633 44.6691 277.878 44.6691C277.132 44.6691 276.529 44.4391 276.069 43.9793C275.609 43.5194 275.379 42.9163 275.379 42.1701V39.1766C274.59 40.964 273.383 42.348 271.761 43.3285C270.138 44.309 268.264 44.7992 266.138 44.7992C264.177 44.7992 262.377 44.4001 260.737 43.6018C259.088 42.8122 257.787 41.7102 256.832 40.2959C255.869 38.8815 255.387 37.3197 255.387 35.6103C255.387 33.3196 255.973 31.5408 257.144 30.274C258.307 28.9985 260.22 28.0787 262.884 27.5147C265.557 26.9594 269.266 26.6817 274.012 26.6817H275.379V24.6123C275.379 22.1133 274.872 20.2824 273.856 19.1197C272.832 17.9483 271.175 17.3626 268.884 17.3626C266.056 17.3626 263.184 18.1349 260.268 19.6794C259.14 20.3909 258.346 20.7467 257.886 20.7467C257.392 20.7467 256.975 20.5558 256.637 20.174C256.307 19.8009 256.142 19.3236 256.142 18.7423C256.142 18.1609 256.32 17.649 256.676 17.2064C257.032 16.7726 257.604 16.3257 258.394 15.8659C259.852 15.0329 261.505 14.3778 263.353 13.9005C265.21 13.4233 267.054 13.1847 268.884 13.1847ZM266.828 40.7905C269.327 40.7905 271.379 39.9488 272.984 38.2655C274.581 36.5821 275.379 34.4042 275.379 31.7317V29.9226H274.26C270.598 29.9226 267.808 30.0787 265.891 30.3911C263.973 30.7035 262.607 31.2241 261.791 31.953C260.984 32.6818 260.581 33.7534 260.581 35.1678C260.581 36.7991 261.175 38.144 262.364 39.2026C263.544 40.2612 265.032 40.7905 266.828 40.7905ZM304.937 13.1847C308.521 13.1847 311.228 14.1955 313.059 16.2173C314.89 18.2303 315.805 21.2369 315.805 25.237V42.1701C315.805 42.9597 315.575 43.5758 315.115 44.0183C314.655 44.4522 314.052 44.6691 313.306 44.6691C312.517 44.6691 311.892 44.4522 311.432 44.0183C310.972 43.5758 310.742 42.9597 310.742 42.1701V25.3671C310.742 22.6599 310.191 20.6599 309.089 19.367C307.987 18.0741 306.226 17.4277 303.805 17.4277C301.02 17.4277 298.794 18.2824 297.128 19.9918C295.462 21.7011 294.629 24.0135 294.629 26.929V42.1701C294.629 42.9597 294.408 43.5758 293.965 44.0183C293.531 44.4522 292.92 44.6691 292.13 44.6691C291.34 44.6691 290.716 44.4522 290.256 44.0183C289.796 43.5758 289.566 42.9597 289.566 42.1701V2.4339C289.566 1.73106 289.805 1.1497 290.282 0.689823C290.759 0.229943 291.375 0 292.13 0C292.92 0 293.531 0.216924 293.965 0.650773C294.408 1.0933 294.629 1.68768 294.629 2.4339V18.8074C295.627 16.9765 297.019 15.5795 298.807 14.6164C300.603 13.6619 302.647 13.1847 304.937 13.1847Z"
        fill="#F3F7F9" />
    <defs>
        <linearGradient id="paint0_linear_0_1" x1="8.93118" y1="-0.848342" x2="1.46114" y2="6.36604"
            gradientUnits="userSpaceOnUse">
            <stop stop-color="#6ee7b7" />
            <stop offset="1" stop-color="#10b981" />
        </linearGradient>
        <linearGradient id="paint1_linear_0_1" x1="8.93116" y1="-0.848341" x2="1.46112" y2="6.36605"
            gradientUnits="userSpaceOnUse">
            <stop stop-color="#6ee7b7" />
            <stop offset="1" stop-color="#10b981" />
        </linearGradient>
        <linearGradient id="paint2_linear_0_1" x1="8.93119" y1="-0.848348" x2="1.46115" y2="6.36604"
            gradientUnits="userSpaceOnUse">
            <stop stop-color="#6ee7b7" />
            <stop offset="1" stop-color="#10b981" />
        </linearGradient>
        <linearGradient id="paint3_linear_0_1" x1="8.93117" y1="-0.848341" x2="1.46113" y2="6.36604"
            gradientUnits="userSpaceOnUse">
            <stop stop-color="#6ee7b7" />
            <stop offset="1" stop-color="#10b981" />
        </linearGradient>
    </defs>
</svg>